<svg xmlns:xlink="http://www.w3.org/1999/xlink" xmlns="http://www.w3.org/2000/svg" viewBox="0 0 31.92 27.64"><linearGradient y2="15.35" y1="15.35" x2="31.21" x1="2.5" gradientUnits="userSpaceOnUse" id="a"><stop stop-color="#7e5235" offset=".09"></stop><stop stop-color="#b68b5e" offset=".96"></stop></linearGradient><path fill="url(#a)" d="m17.54 27.64a1.43 1.43 0 0 1 -.5-.09l-13.58-5a1.46 1.46 0 0 1 -1-1.37v-16.66a1.46 1.46 0 0 1 2.92 0v15.65l12.11 4.45 10.28-3.92v-5.24l-9.33 3.82a1.47 1.47 0 0 1 -2-1.35v-8.93a1.47 1.47 0 0 1 1-1.38l11.81-4.3a1.46 1.46 0 1 1 1 2.74l-10.9 3.94v5.74l9.33-3.82a1.46 1.46 0 0 1 2 1.36v8.42a1.45 1.45 0 0 1 -.94 1.36l-11.68 4.48a1.34 1.34 0 0 1 -.52.1z"></path><g fill-rule="evenodd"><path fill="#569c37" d="m3 5.71a4.52 4.52 0 0 1 3-2 4.47 4.47 0 0 1 -.16 3.67 4.51 4.51 0 0 1 -3 2.05 4.51 4.51 0 0 1 .16-3.72z"></path><path fill="#74b533" d="m2.69 2.38a4.52 4.52 0 0 1 3.61.67 4.48 4.48 0 0 1 -2.69 2.5 4.48 4.48 0 0 1 -3.61-.67 4.51 4.51 0 0 1 2.69-2.5z"></path><path fill="#569c37" d="m29.28 3.33a4.52 4.52 0 0 1 -3.62-.61 4.51 4.51 0 0 1 2.64-2.55 4.45 4.45 0 0 1 3.62.61 4.51 4.51 0 0 1 -2.64 2.55z"></path><path fill="#74b533" d="m29.45 2.7a4.51 4.51 0 0 1 2.09 3 4.47 4.47 0 0 1 -3.67-.12 4.49 4.49 0 0 1 -2.09-3 4.51 4.51 0 0 1 3.67.12z"></path><path fill="#569c37" d="m24.89 1.27a4.51 4.51 0 0 1 2.7 2.49 4.48 4.48 0 0 1 -3.59.68 4.47 4.47 0 0 1 -2.71-2.44 4.46 4.46 0 0 1 3.6-.73z"></path><path fill="#569c37" d="m20.64 7.57a4.49 4.49 0 0 1 -3.64-.57 4.53 4.53 0 0 1 2.65-2.55 4.49 4.49 0 0 1 3.62.6 4.47 4.47 0 0 1 -2.63 2.52z"></path><path fill="#74b533" d="m20.82 7a4.51 4.51 0 0 1 2.09 3 4.51 4.51 0 0 1 -3.67-.12 4.46 4.46 0 0 1 -2.09-3 4.51 4.51 0 0 1 3.67.12z"></path><path fill="#569c37" d="m16.26 5.52a4.54 4.54 0 0 1 2.74 2.48 4.49 4.49 0 0 1 -3.61.68 4.54 4.54 0 0 1 -2.7-2.49 4.48 4.48 0 0 1 3.57-.67z"></path><path fill="#569c37" d="m22.45 4.18a4.48 4.48 0 0 1 3.05-2 4.48 4.48 0 0 1 -.17 3.66 4.52 4.52 0 0 1 -3 2.06 4.51 4.51 0 0 1 .12-3.72z"></path></g></svg>